<svg xmlns="http://www.w3.org/2000/svg" width="172" height="99" viewBox="0 0 172 99">
    <g fill="none" fill-rule="evenodd">
        <g>
            <g>
                <path stroke="#1E88E5" strokeLinecap="round" strokeWidth="2" d="M59.751 60.216S37.663 12.386 98.246 1.673c53.323-9.43 80.172 23.111 66.06 45.272-12.203 19.158-62.838 28.755-90.28 20.971" transform="translate(-597 -1208) translate(598.335 1209.444)"/>
                <path fill="#FFF" d="M0.056 44.043L16.34 15.86 69.975 46.766 74.152 67.957 53.688 74.948z" transform="translate(-597 -1208) translate(598.335 1209.444)"/>
                <path stroke="#1E88E5" strokeLinecap="round" strokeLinejoin="round" strokeWidth="2" d="M0.056 44.043L16.34 15.86 69.975 46.766 74.152 67.957 53.688 74.948z" transform="translate(-597 -1208) translate(598.335 1209.444)"/>
                <path fill="#FFF" d="M62.466 60.216c0 1.496-1.215 2.71-2.715 2.71-1.5 0-2.714-1.214-2.714-2.71 0-1.497 1.215-2.713 2.714-2.713 1.5 0 2.715 1.216 2.715 2.713" transform="translate(-597 -1208) translate(598.335 1209.444)"/>
                <path stroke="#1E88E5" strokeLinecap="round" strokeLinejoin="round" strokeWidth="2" d="M62.466 60.216c0 1.496-1.215 2.71-2.715 2.71-1.5 0-2.714-1.214-2.714-2.71 0-1.497 1.215-2.713 2.714-2.713 1.5 0 2.715 1.216 2.715 2.713z" transform="translate(-597 -1208) translate(598.335 1209.444)"/>
                <path fill="#4B4B4B" d="M22.618 35.096L22.59 35.08 20.602 35.04 20.885 34.009 23.379 34.07 24.388 34.641 19.428 43.385 18.283 42.737zM22.62 45.19l.413-.726 1.44-.375c3.444-.86 5.107-1.411 5.856-2.732.502-.886.552-1.943-.757-2.683-.794-.449-1.684-.42-2.279-.311l.097-1.048c.876-.163 1.973-.058 2.97.506 1.887 1.068 1.948 2.809 1.238 4.061-.914 1.612-2.827 2.255-5.68 2.987l-1.054.257-.016.028 3.921 2.218-.557.981-5.592-3.162zM30.578 47.912c.221.393.798 1.164 1.634 1.636 1.508.853 2.537.173 2.943-.573.68-1.234-.126-2.382-1.272-3.03l-.66-.374.502-.888.66.374c.863.486 2.206.66 2.793-.377.398-.699.304-1.569-.787-2.186-.7-.397-1.55-.468-2.08-.411l.166-1.045c.662-.069 1.742.097 2.685.63 1.725.975 1.926 2.44 1.322 3.504-.518.915-1.506 1.369-2.79 1.156l-.016.029c.965.81 1.368 2.105.686 3.338-.793 1.4-2.59 1.997-4.68.818-.985-.558-1.67-1.354-1.942-1.881l.836-.72zM41.984 51.77l1.656-2.92c.26-.457.532-.908.818-1.35l-.04-.023c-.56.36-.989.614-1.459.88l-3.828 1.762-.017.028 2.87 1.624zm-1.878 3.31l1.358-2.396-4.068-2.3.434-.766 7.076-3.376 1.278.723-3.081 5.438 1.226.693-.52.916-1.226-.694-1.358 2.394-1.119-.633zM52.975 52.122l-3.341-1.89-1.612 2.056c.218.088.413.181.738.364.687.388 1.27.897 1.618 1.539.475.764.606 1.85-.012 2.94-.97 1.71-3.054 2.218-4.954 1.144-.958-.54-1.6-1.26-1.878-1.774l.808-.733c.24.421.804 1.093 1.611 1.55 1.105.625 2.486.448 3.136-.73.642-1.13.324-2.358-1.414-3.34-.513-.29-.925-.471-1.271-.614l2.947-3.878 4.188 2.37-.564.996z" transform="translate(-597 -1208) translate(598.335 1209.444)"/>
                <path stroke="#1E88E5" strokeLinecap="round" strokeWidth="2" d="M59.751 60.216s13.821 24.705 47.445 35.018" transform="translate(-597 -1208) translate(598.335 1209.444)"/>
            </g>
        </g>
    </g>
</svg>
