<svg xmlns="http://www.w3.org/2000/svg" width="220" height="205" viewBox="0 0 220 205">
    <g fill="none" fill-rule="evenodd">
        <g>
            <g transform="translate(-1000 -1616) translate(1000.732 1617.766)">
                <path fill="#E6E6E6" d="M129.308 50.405H135.934V125.607H129.308zM173.461 32.721H181.66600000000003V95.39099999999999H173.461z"/>
                <g>
                    <path fill="#FFF" d="M53.678 28.563l-.604 3.844-.984 1.97s2.597 1.768 5.243 1.025c0 0 .175-2.65.86-4.385l-4.515-2.454z" transform="translate(0 66.904)"/>
                    <path fill="#FFF" d="M64.834 25.529s.55 2.27-1.015 3.749c-1.564 1.478-4.347 2.496-6.915 1.36-2.567-1.14-4.802-4.816-5.261-5.903l-3.176-1.092s-3.143-2.458-3.253-4.77c-.108-2.314-1.119-3.401-1.648-3.588-.529-.187-3.327-.274-4.029.954 0 0 1.95-4.374 3.618-4.81 1.668-.437 2.926-.616 2.926-.616s-.362-4.847 2.184-7.945C50.81-.23 54.107.77 54.107.77s4.175 1.658 2.411 5.717c0 0 6.044-1.445 7.99 1.251 1.944 2.694 2.599 5.102 1.544 7.207-1.055 2.105-1.307 2.16-1.307 2.16s.935 4.214 2.65 7.146l-2.561 1.278zM70.942 122.835l-6.678 1.074c-.508.082-.986-.264-1.068-.77L63 121.931c-.082-.508.264-.985.772-1.066l6.677-1.075c.508-.08.986.264 1.068.77l.196 1.21c.082.506-.264.983-.772 1.065" transform="translate(0 66.904)"/>
                    <path stroke="#1E86E3" stroke-linecap="round" stroke-linejoin="round" d="M70.942 122.835l-6.678 1.074c-.508.082-.986-.264-1.068-.77L63 121.931c-.082-.508.264-.985.772-1.066l6.677-1.075c.508-.08.986.264 1.068.77l.196 1.21c.082.506-.264.983-.772 1.065z" transform="translate(0 66.904)"/>
                    <path fill="#FFF" d="M40.419 105.98L40.993 109.415 42.64 109.415 42.791 107.148" transform="translate(0 66.904)"/>
                    <path stroke="#1E86E3" stroke-linecap="round" stroke-linejoin="round" d="M40.419 105.98L40.993 109.415 42.64 109.415 42.791 107.148" transform="translate(0 66.904)"/>
                    <path fill="#FFF" d="M49.372 103.65c.55.244 1.984 1.202 2.81 1.75.943.625 2.674 1.75 2.661 2.755-.013 1.075-.935 1.422-1.985 1.662-1.05.238-1.78.09-3.052-.13-1.06-.181-2.559-.743-3.526-1.218-1.555-.764-3.228-1.26-4.822-1.943-.782-.335-1.606-.78-1.93-1.565-.34-.823-.027-1.755.285-2.588l.421-1.125 9.138 2.403z" transform="translate(0 66.904)"/>
                    <path stroke="#1E86E3" stroke-linecap="round" stroke-linejoin="round" d="M49.372 103.65c.55.244 1.984 1.202 2.81 1.75.943.625 2.674 1.75 2.661 2.755-.013 1.075-.935 1.422-1.985 1.662-1.05.238-1.78.09-3.052-.13-1.06-.181-2.559-.743-3.526-1.218-1.555-.764-3.228-1.26-4.822-1.943-.782-.335-1.606-.78-1.93-1.565-.34-.823-.027-1.755.285-2.588l.421-1.125 9.138 2.403z" transform="translate(0 66.904)"/>
                    <path fill="#FFF" d="M62.877 75.301c.734 1.323.989 3.37.553 4.818-.468 1.553-1.572 2.83-2.71 3.99-5.74 5.854-12.991 10.002-19.124 15.447 0 0-1.267.874-1.466 1.383-.198.51.022 1.476 1.737 2.45 1.714.975 4.5 3.141 7.505.261l-3.956-2.337c3.66-3.207 7.364-6.379 11.39-9.113 1.235-.84 2.5-1.637 3.716-2.502 2.612-1.86 5.059-4.122 6.389-7.034 1.331-2.914 1.109-7.137-.853-9.67l-3.18 2.307z" transform="translate(0 66.904)"/>
                    <path stroke="#1E86E3" stroke-linecap="round" stroke-linejoin="round" d="M62.877 75.301c.734 1.323.989 3.37.553 4.818-.468 1.553-1.572 2.83-2.71 3.99-5.74 5.854-12.991 10.002-19.124 15.447 0 0-1.267.874-1.466 1.383-.198.51.022 1.476 1.737 2.45 1.714.975 4.5 3.141 7.505.261l-3.956-2.337c3.66-3.207 7.364-6.379 11.39-9.113 1.235-.84 2.5-1.637 3.716-2.502 2.612-1.86 5.059-4.122 6.389-7.034 1.331-2.914 1.109-7.137-.853-9.67l-3.18 2.307z" transform="translate(0 66.904)"/>
                    <path fill="#FFF" d="M26.567 132.153c-10.184 0-18.44-8.237-18.44-18.398 0-10.16 8.256-18.397 18.44-18.397 10.184 0 18.44 8.236 18.44 18.397 0 10.161-8.256 18.398-18.44 18.398m0-39.487c-11.673 0-21.138 9.442-21.138 21.09 0 11.647 9.465 21.09 21.138 21.09 11.674 0 21.138-9.443 21.138-21.09 0-11.648-9.464-21.09-21.138-21.09" transform="translate(0 66.904)"/>
                    <path stroke="#1E86E3" stroke-linecap="round" stroke-linejoin="round" d="M26.567 132.153c-10.184 0-18.44-8.237-18.44-18.398 0-10.16 8.256-18.397 18.44-18.397 10.184 0 18.44 8.236 18.44 18.397 0 10.161-8.256 18.398-18.44 18.398zm0-39.487c-11.673 0-21.138 9.442-21.138 21.09 0 11.647 9.465 21.09 21.138 21.09 11.674 0 21.138-9.443 21.138-21.09 0-11.648-9.464-21.09-21.138-21.09z" transform="translate(0 66.904)"/>
                    <path fill="#FFF" d="M26.567 87.895c-14.354 0-25.99 11.61-25.99 25.932h2.741c0-12.812 10.41-23.198 23.25-23.198s23.248 10.386 23.248 23.198h2.74c0-14.323-11.635-25.932-25.989-25.932" transform="translate(0 66.904)"/>
                    <path stroke="#1E86E3" stroke-linecap="round" stroke-linejoin="round" d="M26.567 87.895c-14.354 0-25.99 11.61-25.99 25.932h2.741c0-12.812 10.41-23.198 23.25-23.198s23.248 10.386 23.248 23.198h2.74c0-14.323-11.635-25.932-25.989-25.932z" transform="translate(0 66.904)"/>
                    <path fill="#FFF" d="M99.992 90.708v-2.734c-14.354 0-25.99 11.61-25.99 25.931h2.74c0-12.81 10.409-23.197 23.25-23.197" transform="translate(0 66.904)"/>
                    <path stroke="#1E86E3" stroke-linecap="round" stroke-linejoin="round" d="M99.992 90.708v-2.734c-14.354 0-25.99 11.61-25.99 25.931h2.74c0-12.81 10.409-23.197 23.25-23.197zM64.812 17.326c.211 1.965 1.58 5.267 2.885 6.753-.914.536-1.89.964-2.904 1.274.483 1.9-.545 4-2.221 5.02-1.678 1.018-3.857 1.022-5.668.264-1.81-.757-3.27-2.205-4.31-3.868-.768-1.226-1.156-2.932-2.018-4.249M53.11 27.657c.793 1.133.643 2.675.23 3.994-.3.956-.722 1.874-1.25 2.726-.039-.035-.005-.114.047-.11" transform="translate(0 66.904)"/>
                    <path fill="#FFF" d="M58.594 113.63l-3.326-14.296 30.84-17.765.381 2.257-27.895 29.803zm-29.82-1.002l20.147-29.242 7.269 31.25-27.416-2.008zm58.55-39.295l-2.534.426.863 5.111-30.992 17.852-3.868-16.631-2.477-.354-22.51 32.673-.083 2.475 31.076 2.367 2.532-.652 27.695-29.59 1.61 8.955 2.533-.425-3.845-22.207z" transform="translate(0 66.904)"/>
                    <path stroke="#1E86E3" stroke-linecap="round" stroke-linejoin="round" d="M58.594 113.63l-3.326-14.296 30.84-17.765.381 2.257-27.895 29.803zm-29.82-1.002l20.147-29.242 7.269 31.25-27.416-2.008zm58.55-39.295l-2.534.426.863 5.111-30.992 17.852-3.868-16.631-2.477-.354-22.51 32.673-.083 2.475 31.076 2.367 2.532-.652 27.695-29.59 1.61 8.955 2.533-.425-3.845-22.207zM58.193 31.487c-.687.96-1.077 2.13-1.105 3.308" transform="translate(0 66.904)"/>
                    <path fill="#FFF" d="M62.658 36.002c.82 1.892 2.904 6.237 4.02 7.972.603.934 1.286 1.814 1.988 2.677 2.74 3.363 8.445 9.314 11.752 12.124l-2.584 2.377c-5.263-4.16-12.102-10.029-15.623-15.732" transform="translate(0 66.904)"/>
                    <path stroke="#1E86E3" stroke-linecap="round" stroke-linejoin="round" d="M62.658 36.002c.82 1.892 2.904 6.237 4.02 7.972.603.934 1.286 1.814 1.988 2.677 2.74 3.363 8.445 9.314 11.752 12.124l-2.584 2.377c-5.263-4.16-12.102-10.029-15.623-15.732M49.82 24.128c-1.916-.341-3.371-1.983-4.129-3.771-.546-1.292-.81-2.734-.535-4.108.275-1.374 1.137-2.664 2.405-3.268.597-.285 1.283-.426 1.763-.88.345-.328.54-.776.786-1.184.937-1.548 2.618-2.47 4.258-3.24 2.3-1.08 4.858-2.018 7.333-1.444 2.543.589 4.593 2.89 4.88 5.48.288 2.59-1.205 5.282-3.558 6.412M61.983 15.739c-.962 1.854-2.538 3.385-4.423 4.291M50.706 21.425c2.995-.588 5.634-2.744 6.803-5.557" transform="translate(0 66.904)"/>
                    <path stroke="#1E86E3" stroke-linecap="round" stroke-linejoin="round" d="M56.336 6.76c1.144-1.53.767-3.912-.68-5.16-1.448-1.247-3.713-1.336-5.364-.372-1.87 1.09-2.855 3.21-3.555 5.253-.386 1.13-.725 2.3-.696 3.493.029 1.193.396 2.361 1.334 3.101M46.082 10.813c-1.555-.263-3.139.511-4.24 1.637-1.101 1.125-1.808 2.567-2.496 3.982.637-.688 1.501-1.164 2.424-1.333.564-.104 1.164-.092 1.69.133.528.227 1.484.862 1.587 1.426M59.464 21.252c-2.934.035-5.865.342-8.743.915-.29.059-.587.12-.837.279-.25.157-.448.43-.432.725M61.258 26.945c.999.352 2.098.417 3.133.19M63.834 19.712c.331-.174.65-.375.951-.597" transform="translate(0 66.904)"/>
                    <path fill="#FFF" d="M29.587 113.755c0 1.664-1.351 3.012-3.02 3.012-1.668 0-3.019-1.348-3.019-3.012 0-1.663 1.351-3.012 3.019-3.012 1.669 0 3.02 1.349 3.02 3.012" transform="translate(0 66.904)"/>
                    <path stroke="#1E86E3" stroke-linecap="round" stroke-linejoin="round" d="M29.587 113.755c0 1.664-1.351 3.012-3.02 3.012-1.668 0-3.019-1.348-3.019-3.012 0-1.663 1.351-3.012 3.019-3.012 1.669 0 3.02 1.349 3.02 3.012z" transform="translate(0 66.904)"/>
                    <path fill="#FFF" d="M63.389 113.755c0 3.308-2.689 5.99-6.004 5.99-3.315 0-6.003-2.682-6.003-5.99 0-3.307 2.688-5.99 6.003-5.99s6.004 2.683 6.004 5.99" transform="translate(0 66.904)"/>
                    <path stroke="#1E86E3" stroke-linecap="round" stroke-linejoin="round" d="M63.389 113.755c0 3.308-2.689 5.99-6.004 5.99-3.315 0-6.003-2.682-6.003-5.99 0-3.307 2.688-5.99 6.003-5.99s6.004 2.683 6.004 5.99z" transform="translate(0 66.904)"/>
                    <path fill="#FFF" d="M102.978 113.755c0 1.664-1.353 3.012-3.02 3.012-1.668 0-3.02-1.348-3.02-3.012 0-1.663 1.352-3.012 3.02-3.012 1.667 0 3.02 1.349 3.02 3.012" transform="translate(0 66.904)"/>
                    <path stroke="#1E86E3" stroke-linecap="round" stroke-linejoin="round" d="M102.978 113.755c0 1.664-1.353 3.012-3.02 3.012-1.668 0-3.02-1.348-3.02-3.012 0-1.663 1.352-3.012 3.02-3.012 1.667 0 3.02 1.349 3.02 3.012z" transform="translate(0 66.904)"/>
                    <path fill="#FFF" d="M93.964 64.222c-1.015-.832-2.313-1.33-3.728-1.33H77.843c-.7 0-1.268.566-1.268 1.263v.053c0 .7.568 1.265 1.268 1.265h12.266c.022 0 .041.006.063.007.022 0 .042-.007.064-.007 1.833 0 3.318 1.483 3.318 3.312 0 1.828-1.485 3.311-3.318 3.311-.022 0-.042-.007-.064-.007-.022.001-.041.007-.063.007h-5.636c-.7 0-1.268.566-1.268 1.265 0 .698.568 1.264 1.268 1.264h5.763c1.415 0 2.713-.499 3.728-1.33 1.315-1.077 2.153-2.708 2.153-4.536 0-1.828-.838-3.46-2.153-4.537" transform="translate(0 66.904)"/>
                    <path stroke="#1E86E3" stroke-linecap="round" stroke-linejoin="round" d="M93.964 64.222c-1.015-.832-2.313-1.33-3.728-1.33H77.843c-.7 0-1.268.566-1.268 1.263v.053c0 .7.568 1.265 1.268 1.265h12.266c.022 0 .041.006.063.007.022 0 .042-.007.064-.007 1.833 0 3.318 1.483 3.318 3.312 0 1.828-1.485 3.311-3.318 3.311-.022 0-.042-.007-.064-.007-.022.001-.041.007-.063.007h-5.636c-.7 0-1.268.566-1.268 1.265 0 .698.568 1.264 1.268 1.264h5.763c1.415 0 2.713-.499 3.728-1.33 1.315-1.077 2.153-2.708 2.153-4.536 0-1.828-.838-3.46-2.153-4.537z" transform="translate(0 66.904)"/>
                    <path fill="#FFF" d="M99.958 132.153c-10.183 0-18.44-8.237-18.44-18.398 0-10.16 8.257-18.397 18.44-18.397 10.184 0 18.44 8.236 18.44 18.397 0 10.161-8.256 18.398-18.44 18.398m0-39.487c-11.674 0-21.137 9.442-21.137 21.09 0 11.647 9.463 21.09 21.137 21.09 11.673 0 21.138-9.443 21.138-21.09 0-11.648-9.465-21.09-21.138-21.09" transform="translate(0 66.904)"/>
                    <path stroke="#1E86E3" stroke-linecap="round" stroke-linejoin="round" d="M99.958 132.153c-10.183 0-18.44-8.237-18.44-18.398 0-10.16 8.257-18.397 18.44-18.397 10.184 0 18.44 8.236 18.44 18.397 0 10.161-8.256 18.398-18.44 18.398zm0-39.487c-11.674 0-21.137 9.442-21.137 21.09 0 11.647 9.463 21.09 21.137 21.09 11.673 0 21.138-9.443 21.138-21.09 0-11.648-9.465-21.09-21.138-21.09z" transform="translate(0 66.904)"/>
                    <path fill="#FFF" d="M60.665 117.077L61.239 120.513 62.885 120.513 63.037 118.245" transform="translate(0 66.904)"/>
                    <path stroke="#1E86E3" stroke-linecap="round" stroke-linejoin="round" d="M60.665 117.077L61.239 120.513 62.885 120.513 63.037 118.245" transform="translate(0 66.904)"/>
                    <path fill="#FFF" d="M69.617 114.748c.55.243 1.985 1.201 2.81 1.749.943.625 2.674 1.75 2.663 2.756-.013 1.075-.936 1.421-1.987 1.661-1.05.239-1.78.09-3.05-.129-1.062-.182-2.56-.744-3.527-1.219-1.556-.764-3.23-1.26-4.823-1.942-.781-.336-1.606-.782-1.93-1.566-.34-.823-.027-1.755.286-2.588l.42-1.124 9.138 2.402z" transform="translate(0 66.904)"/>
                    <path stroke="#1E86E3" stroke-linecap="round" stroke-linejoin="round" d="M69.617 114.748c.55.243 1.985 1.201 2.81 1.749.943.625 2.674 1.75 2.663 2.756-.013 1.075-.936 1.421-1.987 1.661-1.05.239-1.78.09-3.05-.129-1.062-.182-2.56-.744-3.527-1.219-1.556-.764-3.23-1.26-4.823-1.942-.781-.336-1.606-.782-1.93-1.566-.34-.823-.027-1.755.286-2.588l.42-1.124 9.138 2.402z" transform="translate(0 66.904)"/>
                    <path fill="#FFF" d="M76.439 61.166c-.57.38-.804 1.23-1.056 1.868-.1.258-.17.531-.17.806.003.479.221.94.545 1.29.7.761 4.015.82 4.94.365v.308l-1.135.335c-.874.44-1.326 1.584-.956 2.488.371.904 1.674 1.518 2.514 1.017.254-.15.43-.313.657-.504.64-.541 1.221-1.152 1.727-1.82.193-.255.377-.522.474-.829.21-.664-.032-1.381-.283-2.033-.277-.718-.571-1.438-1.015-2.067-.132-.19-.284-.375-.487-.482-.192-.103-.414-.13-.632-.155-1.708-.195-3.415-.39-5.123-.587" transform="translate(0 66.904)"/>
                    <path stroke="#1E86E3" stroke-linecap="round" stroke-linejoin="round" d="M76.439 61.166c-.57.38-.804 1.23-1.056 1.868-.1.258-.17.531-.17.806.003.479.221.94.545 1.29.7.761 4.015.82 4.94.365v.308l-1.135.335c-.874.44-1.326 1.584-.956 2.488.371.904 1.674 1.518 2.514 1.017.254-.15.43-.313.657-.504.64-.541 1.221-1.152 1.727-1.82.193-.255.377-.522.474-.829.21-.664-.032-1.381-.283-2.033-.277-.718-.571-1.438-1.015-2.067-.132-.19-.284-.375-.487-.482-.192-.103-.414-.13-.632-.155-1.708-.195-3.415-.39-5.123-.587z" transform="translate(0 66.904)"/>
                    <path fill="#FFF" d="M63.168 110.402c1.437-3.828 2.066-7.249 3.502-11.077.844-2.25 1.698-4.551 1.771-6.954.1-3.34-1.342-6.58-3.378-9.232-2.037-2.653-4.153-4.396-6.738-6.52l-.786-.848 3.048-3.041 2.798 2.612c3.603 3.835 7.918 8.74 8.846 13.915.766 4.271-.536 8.641-2.22 12.643-1.436 3.412-2.366 6.324-3.432 9.855 0 0 .283 1.681 3.038 2.992 0 0 1.408 2.256-2.296 1.328-3.705-.93-6.841-3.729-6.841-3.729l2.688-1.944z" transform="translate(0 66.904)"/>
                    <path stroke="#1E86E3" stroke-linecap="round" stroke-linejoin="round" d="M63.168 110.402c1.437-3.828 2.066-7.249 3.502-11.077.844-2.25 1.698-4.551 1.771-6.954.1-3.34-1.342-6.58-3.378-9.232-2.037-2.653-4.153-4.396-6.738-6.52l-.786-.848 3.048-3.041 2.798 2.612c3.603 3.835 7.918 8.74 8.846 13.915.766 4.271-.536 8.641-2.22 12.643-1.436 3.412-2.366 6.324-3.432 9.855 0 0 .283 1.681 3.038 2.992 0 0 1.408 2.256-2.296 1.328-3.705-.93-6.841-3.729-6.841-3.729l2.688-1.944zM79.946 59.357c.738.103 1.484.209 2.178.48s1.342.73 1.695 1.384c.241.448.333.958.42 1.459" transform="translate(0 66.904)"/>
                    <path fill="#FFF" d="M98.886 114.231c-5.27-3.863-9.12-16.638-10.06-26.032l2.53-.45c.87 8.201 4.373 20.741 9.132 24.43.457.353.594.984.364 1.514-.331.764-1.294 1.032-1.966.538" transform="translate(0 66.904)"/>
                    <path stroke="#1E86E3" stroke-linecap="round" stroke-linejoin="round" d="M98.886 114.231c-5.27-3.863-9.12-16.638-10.06-26.032l2.53-.45c.87 8.201 4.373 20.741 9.132 24.43.457.353.594.984.364 1.514-.331.764-1.294 1.032-1.966.538z" transform="translate(0 66.904)"/>
                    <path fill="#FFF" d="M49.96 66.07c2.03 1.183 4.069 2.37 6.247 3.251 2.178.884 4.322 1.787 6.67 1.688-1.19 2.704-3.515 4.756-6.019 6.331-4.006 2.523-8.775 4.057-13.486 3.544-4.709-.512-9.285-3.292-11.26-7.588 4.01-3.615 7.267-8.44 9.723-13.244.526-1.026 1.028-2.073 1.335-3.184.375-1.355.448-2.771.52-4.174l.424-8.28c.127-2.464.28-5.026 1.484-7.181 1.203-2.155 3.793-3.755 6.149-3.005 1.252 1.492 3.805 1.976 5.586 1.174.86-.387.065-1.281-.025-1.28 1.006.02 2.012.033 3.019.06.964.027 2.144.613 2.289 1.538.768 4.913.022 10.103-2.556 14.358-.54 2.588-.962 12.086.437 14.331 1.398 2.245 4.2 3.71 6.766 3.054-2.033 1.61-.15 5.457-2.05 7.222-.686.638-1.731.793-2.638.551-.905-.24-1.196-.352-1.835-1.038l1.58-1.728" transform="translate(0 66.904)"/>
                    <path stroke="#1E86E3" stroke-linecap="round" stroke-linejoin="round" d="M49.96 66.07c2.03 1.183 4.069 2.37 6.247 3.251 2.178.884 4.322 1.787 6.67 1.688-1.19 2.704-3.515 4.756-6.019 6.331-4.006 2.523-8.775 4.057-13.486 3.544-4.709-.512-9.285-3.292-11.26-7.588 4.01-3.615 7.267-8.44 9.723-13.244.526-1.026 1.028-2.073 1.335-3.184.375-1.355.448-2.771.52-4.174l.424-8.28c.127-2.464.28-5.026 1.484-7.181 1.203-2.155 3.793-3.755 6.149-3.005 1.252 1.492 3.805 1.976 5.586 1.174.86-.387.065-1.281-.025-1.28 1.006.02 2.012.033 3.019.06.964.027 2.144.613 2.289 1.538.768 4.913.022 10.103-2.556 14.358-.54 2.588-.962 12.086.437 14.331 1.398 2.245 4.2 3.71 6.766 3.054-2.033 1.61-.15 5.457-2.05 7.222-.686.638-1.731.793-2.638.551-.905-.24-1.196-.352-1.835-1.038" transform="translate(0 66.904)"/>
                    <path fill="#FFF" d="M53.004 41.754c.412.936.827 1.875 1.36 2.748.76 1.25 1.751 2.345 2.797 3.369 5.688 5.57 13.064 9.166 20.672 11.538-.95 1.093-2.28 2.503-3.05 3.73l-4.17-1.51c-2.205-.798-4.413-1.597-6.546-2.568-5.288-2.41-10.037-5.852-14.55-9.508-.534-.432-1.065-.869-1.596-1.304" transform="translate(0 66.904)"/>
                    <path stroke="#1E86E3" stroke-linecap="round" stroke-linejoin="round" d="M53.004 41.754c.412.936.827 1.875 1.36 2.748.76 1.25 1.751 2.345 2.797 3.369 5.688 5.57 13.064 9.166 20.672 11.538-.95 1.093-2.28 2.503-3.05 3.73l-4.17-1.51c-2.205-.798-4.413-1.597-6.546-2.568-5.288-2.41-10.037-5.852-14.55-9.508-.534-.432-1.065-.869-1.596-1.304" transform="translate(0 66.904)"/>
                    <path stroke="#1E86E3" stroke-linecap="round" stroke-linejoin="round" d="M57.299 33.676c1.246.713 1.706 2.37 1.382 3.766-.325 1.395-1.275 2.563-2.31 3.556-7.184 6.893-18.612 6.535-25.706 13.52M19.867 48.57c.004-2.85 2.567-4.909 5.035-6.342 6.069-3.526 14.239-4.914 21.209-5.775" transform="translate(0 66.904)"/>
                    <path fill="#FFF" d="M19.867 48.57c-.155 1.604-.818 3.155-1.873 4.377-.392.456-.852.891-1.018 1.47-.349 1.213.716 2.334 1.678 3.15 1.47 1.25 3.002 2.532 4.857 3.072 1.853.54 4.133.13 5.21-1.47.947-1.406.796-3.402 1.944-4.651-1.185.159-2.419.314-3.555-.058-1.12-.364-2.015-1.197-2.87-2.006-1.535-1.451-2.837-2.433-4.373-3.885" transform="translate(0 66.904)"/>
                    <path stroke="#1E86E3" stroke-linecap="round" stroke-linejoin="round" d="M19.867 48.57c-.155 1.604-.818 3.155-1.873 4.377-.392.456-.852.891-1.018 1.47-.349 1.213.716 2.334 1.678 3.15 1.47 1.25 3.002 2.532 4.857 3.072 1.853.54 4.133.13 5.21-1.47.947-1.406.796-3.402 1.944-4.651-1.185.159-2.419.314-3.555-.058-1.12-.364-2.015-1.197-2.87-2.006-1.535-1.451-2.837-2.433-4.373-3.885" transform="translate(0 66.904)"/>
                    <path stroke="#1E86E3" stroke-linecap="round" stroke-linejoin="round" d="M22.413 54.698c.417 0 .781.344 1.241.835.345.369.823 1.044.745 1.36-.05.21-.245.36-.45.43-.666.236-1.237-.293-1.686-.837-.3-.364-.641-.712-.693-1.18-.056-.484.482-.608.843-.608z" transform="translate(0 66.904)"/>
                    <path fill="#FFF" d="M81.714 65.315c0 .86-.698 1.555-1.558 1.555-.86 0-1.558-.696-1.558-1.555s.697-1.555 1.558-1.555c.86 0 1.558.696 1.558 1.555" transform="translate(0 66.904)"/>
                    <path stroke="#1E86E3" stroke-linecap="round" stroke-linejoin="round" d="M81.714 65.315c0 .86-.698 1.555-1.558 1.555-.86 0-1.558-.696-1.558-1.555s.697-1.555 1.558-1.555c.86 0 1.558.696 1.558 1.555z" transform="translate(0 66.904)"/>
                    <path fill="#1E86E3" d="M63.751 18.857s.186 4.516-1.93 4.896c-2.117.38-2.872-4.217-2.872-4.217s1.917-.738 4.802-.68" transform="translate(0 66.904)"/>
                    <path stroke="#1E86E3" stroke-linecap="round" stroke-linejoin="round" stroke-width=".75" d="M63.751 18.857s.186 4.516-1.93 4.896c-2.117.38-2.872-4.217-2.872-4.217s1.917-.738 4.802-.68z" transform="translate(0 66.904)"/>
                    <path fill="#1E88E5" stroke="#1E86E3" stroke-linecap="round" stroke-linejoin="round" stroke-width=".75" d="M66.34 18.499s.186 2.511-.065 2.572c-.251.064-1.067-2.317-1.067-2.317s.599-.487 1.132-.255z" transform="translate(0 66.904)"/>
                    <path fill="#1E86E3" d="M50.706 25.179c0 .512-.417.93-.93.93-.515 0-.932-.418-.932-.93s.417-.929.931-.929.93.417.93.929" transform="translate(0 66.904)"/>
                    <path stroke="#1E86E3" stroke-linecap="round" stroke-linejoin="round" stroke-width=".5" d="M50.706 25.179c0 .512-.417.93-.93.93-.515 0-.932-.418-.932-.93s.417-.929.931-.929.93.417.93.929z" transform="translate(0 66.904)"/>
                </g>
                <path stroke="#8A8A8A" stroke-width="1.5" d="M87.488 88.903L87.488 50.405 135.933 50.405 135.933 125.607"/>
                <path stroke="#8A8A8A" stroke-width="1.5" d="M125.287 50.405L125.287 25.371 174.202 25.371 174.202 32.847 181.666 32.847 181.666 95.391"/>
                <path fill="#E6E6E6" d="M95.233 60.063H101.85900000000001V66.68900000000001H95.233zM146.241 35.885H152.86700000000002V42.510999999999996H146.241zM175.422 107.733H182.048V114.35900000000001H175.422zM159.406 35.885H166.032V42.510999999999996H159.406zM188.587 107.733H195.213V114.35900000000001H188.587zM159.406 49.02H166.032V55.646H159.406z"/>
                <path fill="#E6E6E6" d="M159.406 49.02H166.032V63.375H159.406zM159.406 69.886H166.032V84.241H159.406zM146.241 49.02H152.86700000000002V63.375H146.241z"/>
                <path stroke="#8A8A8A" stroke-linecap="round" stroke-width="1.5" d="M135.933 25.371L135.933 6.895M142.972 25.371L142.972 0"/>
                <path fill="#E6E6E6" d="M108.398 60.063H115.024V66.68900000000001H108.398zM133.077 35.885H139.703V42.510999999999996H133.077zM108.398 73.199H115.024V79.825H108.398z"/>
                <rect width="31.016" height="45.252" x="140.273" y="131.445" stroke="#8A8A8A" stroke-width="1.5" rx="15.508"/>
                <rect width="31.016" height="45.252" x="186.363" y="131.445" stroke="#8A8A8A" stroke-width="1.5" rx="15.508"/>
                <path stroke="#8A8A8A" stroke-width="1.5" d="M201.871 162.632L201.871 196.711M155.781 162.632L155.781 196.711M166.032 115.144L166.032 95.994 198.382 95.994 198.382 101.729 213.297 101.729 213.297 124.386"/>
            </g>
        </g>
    </g>
</svg>
