<svg xmlns="http://www.w3.org/2000/svg" width="200" height="173" viewBox="0 0 200 173">
    <g fill="none" fill-rule="evenodd">
        <g>
            <g>
                <path fill="#FFF" d="M0.64 13.034L119.333 13.034 119.333 0.476 0.64 0.476z" transform="translate(-582 -1640) translate(583.57 1641.148)"/>
                <path stroke="#8A8A8A" stroke-linecap="round" stroke-linejoin="round" stroke-width="1.5" d="M0.64 0.476L119.333 0.476 119.333 13.033 0.64 13.033" transform="translate(-582 -1640) translate(583.57 1641.148)"/>
                <path fill="#FFF" d="M153.554 168.136L196.44 168.136 196.44 93.103 153.554 93.103z" transform="translate(-582 -1640) translate(583.57 1641.148)"/>
                <path stroke="#8A8A8A" stroke-linecap="round" stroke-linejoin="round" stroke-width="1.5" d="M153.554 168.136L153.554 93.103 196.44 93.103 196.44 168.136" transform="translate(-582 -1640) translate(583.57 1641.148)"/>
                <path fill="#FFF" d="M0.64 168.136L153.554 168.136 153.554 13.034 0.64 13.034z" transform="translate(-582 -1640) translate(583.57 1641.148)"/>
                <path fill="#E6E6E6" d="M149.272 93.102L153.554 93.102 153.554 13.129 149.272 13.129z" transform="translate(-582 -1640) translate(583.57 1641.148)"/>
                <path stroke="#8A8A8A" stroke-linecap="round" stroke-linejoin="round" stroke-width="1.5" d="M0.64 13.034L153.554 13.034 153.554 168.136" transform="translate(-582 -1640) translate(583.57 1641.148)"/>
                <path stroke="#757575" stroke-width="1.5" d="M190.22 132.587c0 1.188-.962 2.15-2.15 2.15-1.186 0-2.15-.962-2.15-2.15 0-1.187.964-2.149 2.15-2.149 1.188 0 2.15.962 2.15 2.15z" transform="translate(-582 -1640) translate(583.57 1641.148)"/>
                <path fill="#1E86E3" d="M176.462 106.868h-2.93V105.4h2.928l.002 1.467zm5.862 1.465c0-.808-.655-1.464-1.463-1.465h-2.935l.001-1.464c0-.81-.655-1.465-1.465-1.465h-2.93c-.81 0-1.465.654-1.465 1.465v1.464h-2.934c-.808 0-1.464.656-1.464 1.464v8.202c0 .81.656 1.466 1.465 1.466l11.727-.005c.807 0 1.462-.654 1.464-1.46l-.001-8.202z" transform="translate(-582 -1640) translate(583.57 1641.148)"/>
                <path stroke="#1E86E3" stroke-linecap="round" stroke-linejoin="round" d="M64.755 49.853c0 6.906-5.598 12.504-12.505 12.504-6.905 0-12.504-5.598-12.504-12.504s5.599-12.504 12.504-12.504c6.907 0 12.505 5.598 12.505 12.504z" transform="translate(-582 -1640) translate(583.57 1641.148)"/>
                <path stroke="#1E86E3" stroke-linecap="round" stroke-linejoin="round" d="M56.05 45.929L52.251 49.853 52.251 58.692" transform="translate(-582 -1640) translate(583.57 1641.148)"/>
                <g>
                    <path stroke="#1E86E3" d="M19.63 84.693H3.5c-1.785 0-3.246-1.46-3.246-3.246v-56.11c0-1.786 1.46-3.246 3.246-3.246h16.13c1.785 0 3.246 1.46 3.246 3.245v56.11c0 1.786-1.46 3.247-3.246 3.247z" transform="translate(-582 -1640) translate(583.57 1641.148) translate(17.068 78.146)"/>
                    <path stroke="#1E86E3" stroke-linecap="round" stroke-linejoin="round" d="M8.958 22.14L8.958 84.692" transform="translate(-582 -1640) translate(583.57 1641.148) translate(17.068 78.146)"/>
                    <path fill="#FFF" d="M111.31 84.693H77.862c-1.785 0-3.247-1.46-3.247-3.246V33.749c0-1.786 1.462-3.246 3.247-3.246h33.448c1.785 0 3.246 1.46 3.246 3.246v47.698c0 1.785-1.46 3.246-3.246 3.246" transform="translate(-582 -1640) translate(583.57 1641.148) translate(17.068 78.146)"/>
                    <path stroke="#1E86E3" d="M111.31 84.693H77.862c-1.785 0-3.247-1.46-3.247-3.246V33.749c0-1.786 1.462-3.246 3.247-3.246h33.448c1.785 0 3.246 1.46 3.246 3.246v47.698c0 1.785-1.46 3.246-3.246 3.246z" transform="translate(-582 -1640) translate(583.57 1641.148) translate(17.068 78.146)"/>
                    <path stroke="#1E86E3" stroke-linecap="round" stroke-linejoin="round" d="M80.59 54.541V42.063c0-1.385 1.013-2.517 2.25-2.517h23.492c1.237 0 2.249 1.132 2.249 2.517v37.779M82.84 48.254L106.331 48.254" transform="translate(-582 -1640) translate(583.57 1641.148) translate(17.068 78.146)"/>
                    <path stroke="#1E86E3" d="M83.694 88.477c0 1.392-1.129 2.52-2.521 2.52s-2.52-1.128-2.52-2.52c0-1.393 1.128-2.521 2.52-2.521 1.392 0 2.52 1.128 2.52 2.52zM110.52 88.477c0 1.392-1.13 2.52-2.521 2.52-1.392 0-2.521-1.128-2.521-2.52 0-1.393 1.129-2.521 2.52-2.521 1.393 0 2.522 1.128 2.522 2.52zM88.168 30.503L90.096 30.503 90.096 7.564 88.168 7.564zM99.075 30.503L101.003 30.503 101.003 7.564 99.075 7.564z" transform="translate(-582 -1640) translate(583.57 1641.148) translate(17.068 78.146)"/>
                    <path stroke="#1E86E3" d="M102.528 7.564H86.644V5.738s2.941-.887 7.942-.887 7.942.887 7.942.887v1.826z" transform="translate(-582 -1640) translate(583.57 1641.148) translate(17.068 78.146)"/>
                    <path fill="#FFF" d="M65.919 84.693H32.47c-1.785 0-3.247-1.46-3.247-3.246V33.749c0-1.786 1.462-3.246 3.247-3.246h33.448c1.785 0 3.246 1.46 3.246 3.246v47.698c0 1.785-1.461 3.246-3.246 3.246" transform="translate(-582 -1640) translate(583.57 1641.148) translate(17.068 78.146)"/>
                    <path stroke="#1E86E3" d="M65.919 84.693H32.47c-1.785 0-3.247-1.46-3.247-3.246V33.749c0-1.786 1.462-3.246 3.247-3.246h33.448c1.785 0 3.246 1.46 3.246 3.246v47.698c0 1.785-1.461 3.246-3.246 3.246zM38.303 88.477c0 1.392-1.13 2.52-2.521 2.52-1.392 0-2.521-1.128-2.521-2.52 0-1.393 1.129-2.521 2.52-2.521 1.393 0 2.522 1.128 2.522 2.52zM21.277 88.477c0 1.392-1.128 2.52-2.52 2.52-1.393 0-2.521-1.128-2.521-2.52 0-1.393 1.128-2.521 2.52-2.521 1.393 0 2.521 1.128 2.521 2.52zM7.256 88.477c0 1.392-1.128 2.52-2.52 2.52-1.393 0-2.521-1.128-2.521-2.52 0-1.393 1.128-2.521 2.52-2.521 1.393 0 2.52 1.128 2.52 2.52zM65.128 88.477c0 1.392-1.128 2.52-2.52 2.52-1.393 0-2.52-1.128-2.52-2.52 0-1.393 1.127-2.521 2.52-2.521 1.392 0 2.52 1.128 2.52 2.52zM42.778 30.503L44.705 30.503 44.705 7.564 42.778 7.564zM10.288 22.091L12.843 22.091 12.843 2.842 10.288 2.842z" transform="translate(-582 -1640) translate(583.57 1641.148) translate(17.068 78.146)"/>
                    <path stroke="#1E86E3" d="M38.31 78.765h-.082c-.714 0-1.293-.58-1.293-1.293V37.723c0-.713.58-1.292 1.293-1.292h.082c.714 0 1.293.579 1.293 1.292v39.749c0 .714-.579 1.293-1.293 1.293zM49.236 78.765h-.082c-.715 0-1.293-.58-1.293-1.293V37.723c0-.713.578-1.292 1.293-1.292h.082c.714 0 1.292.579 1.292 1.292v39.749c0 .714-.578 1.293-1.292 1.293zM60.138 78.765h-.082c-.714 0-1.293-.58-1.293-1.293V37.723c0-.713.579-1.292 1.293-1.292h.082c.714 0 1.293.579 1.293 1.292v39.749c0 .714-.58 1.293-1.293 1.293zM53.684 30.503L55.611 30.503 55.611 7.564 53.684 7.564z" transform="translate(-582 -1640) translate(583.57 1641.148) translate(17.068 78.146)"/>
                    <path stroke="#1E86E3" d="M57.136 7.564H41.253V5.738s2.941-.887 7.942-.887c5 0 7.941.887 7.941.887v1.826zM16.52 2.842H6.61V1.016S8.446.13 11.565.13c3.12 0 4.954.887 4.954.887v1.826z" transform="translate(-582 -1640) translate(583.57 1641.148) translate(17.068 78.146)"/>
                    <path fill="#FFF" d="M14.87 60.468L17.269 60.468 17.269 46.315 14.87 46.315z" transform="translate(-582 -1640) translate(583.57 1641.148) translate(17.068 78.146)"/>
                    <path stroke="#1E86E3" stroke-linecap="round" stroke-linejoin="round" d="M14.87 60.468L17.269 60.468 17.269 46.315 14.87 46.315z" transform="translate(-582 -1640) translate(583.57 1641.148) translate(17.068 78.146)"/>
                    <path fill="#FFF" d="M14.481 46.719L17.726 46.719 17.726 41.689 14.481 41.689z" transform="translate(-582 -1640) translate(583.57 1641.148) translate(17.068 78.146)"/>
                    <path stroke="#1E86E3" stroke-linecap="round" stroke-linejoin="round" d="M14.481 46.719L17.726 46.719 17.726 41.689 14.481 41.689z" transform="translate(-582 -1640) translate(583.57 1641.148) translate(17.068 78.146)"/>
                    <path fill="#FFF" d="M14.481 64.724L17.726 64.724 17.726 59.694 14.481 59.694z" transform="translate(-582 -1640) translate(583.57 1641.148) translate(17.068 78.146)"/>
                    <path stroke="#1E86E3" stroke-linecap="round" stroke-linejoin="round" d="M14.481 64.724L17.726 64.724 17.726 59.694 14.481 59.694zM6.247 22.14L6.247 84.692" transform="translate(-582 -1640) translate(583.57 1641.148) translate(17.068 78.146)"/>
                </g>
            </g>
        </g>
    </g>
</svg>
