<svg xmlns="http://www.w3.org/2000/svg" width="52" height="52" viewBox="0 0 52 52">
    <g fill="none" fill-rule="evenodd">
        <rect width="51" height="51" x=".5" y=".5" fill="#FFF" stroke="#D7D7D7" rx="8"/>
        <g>
            <path fill="#1E88E5" d="M15.673 16.07v5.524c1.733-.187 2.694-1.357 2.694-2.762 0-1.664-1.195-2.318-2.694-2.763zm-1.263-2.226V8.436c-1.57.14-2.67.984-2.67 2.645 0 1.664 1.17 2.294 2.67 2.763zm0 9.484c-2.811-.258-4.777-1.898-4.824-4.38h2.27c.117 1.219.89 2.365 2.554 2.623v-5.855c-2.343-.607-4.847-1.286-4.847-4.517 0-2.528 1.92-4.332 4.847-4.52V4.735h1.263v1.944c2.669.237 4.379 1.802 4.613 4.168h-2.272c-.14-1.005-.914-2.06-2.341-2.366v5.714c2.317.586 4.824 1.265 4.824 4.518 0 2.178-1.638 4.402-4.824 4.615v1.893H14.41v-1.893z" transform="translate(10.795 10.795)"/>
            <path stroke="#1E88E5" strokeWidth="1.5" d="M29.334 15.03c0 7.9-6.405 14.305-14.305 14.305C7.128 29.335.723 22.93.723 15.029.723 7.13 7.128.724 15.03.724c7.9 0 14.305 6.405 14.305 14.305z" transform="translate(10.795 10.795)"/>
        </g>
    </g>
</svg>
