<svg xmlns="http://www.w3.org/2000/svg" width="52" height="52" viewBox="0 0 52 52">
    <g fill="none" fill-rule="evenodd">
        <rect width="51" height="51" x=".5" y=".5" fill="#FFF" stroke="#D7D7D7" rx="8"/>
        <g>
            <path fill="#FFF" d="M23.244 11.702c0 7.809-9.465 17.58-11.253 19.355-.161.16-.416.16-.578 0C9.626 29.282.16 19.51.16 11.702.16 5.327 5.328.16 11.702.16c6.375 0 11.542 5.167 11.542 11.542" transform="translate(14.273 10)"/>
            <path stroke="#1E88E5" strokeWidth="1.5" d="M23.244 11.702c0 7.809-9.465 17.58-11.253 19.355-.161.16-.416.16-.578 0C9.626 29.282.16 19.51.16 11.702.16 5.327 5.328.16 11.702.16c6.375 0 11.542 5.167 11.542 11.542z" transform="translate(14.273 10)"/>
            <path fill="#1E88E5" d="M12.971 8.496h-2.538V7.142h2.537l.001 1.353zm5.076 1.268c0-.7-.567-1.267-1.267-1.268H14.24v-1.27c0-.7-.567-1.268-1.268-1.268h-2.538c-.7 0-1.269.568-1.269 1.269v1.269h-2.54c-.7 0-1.268.567-1.268 1.268v7.103c0 .7.568 1.268 1.268 1.268l10.156-.005c.7 0 1.267-.565 1.269-1.263l-.002-7.103z" transform="translate(14.273 10)"/>
        </g>
    </g>
</svg>
