<svg xmlns="http://www.w3.org/2000/svg" width="50" height="46" viewBox="0 0 50 46">
    <g fill="none" fill-rule="evenodd">
        <g>
            <path fill="#FFF" d="M.916 26.568V8.382C.916 3.805 3.54.095 6.776.095h6.948c3.236 0 5.86 3.71 5.86 8.287v18.186" transform="translate(.814 .453) translate(0 16.826)"/>
            <path stroke="#1E88E5" strokeLinecap="round" strokeLinejoin="round" strokeWidth="1.5" d="M.916 26.568V8.382C.916 3.805 3.54.095 6.776.095h6.948c3.236 0 5.86 3.71 5.86 8.287v18.186" transform="translate(.814 .453) translate(0 16.826)"/>
        </g>
        <path fill="#FFF" d="M18.048 8.714c0 4.308-3.49 7.8-7.798 7.8-4.306 0-7.799-3.492-7.799-7.8S5.944.916 10.25.916c4.308 0 7.798 3.49 7.798 7.798" transform="translate(.814 .453)"/>
        <path stroke="#1E88E5" strokeLinecap="round" strokeLinejoin="round" strokeWidth="1.5" d="M18.048 8.714c0 4.308-3.49 7.8-7.798 7.8-4.306 0-7.799-3.492-7.799-7.8S5.944.916 10.25.916c4.308 0 7.798 3.49 7.798 7.798z" transform="translate(.814 .453)"/>
        <g>
            <path fill="#FFF" d="M1.985.221l15.016 9.052c.836.506 1.255 1.488 1.04 2.44-.333 1.481-2 2.222-3.323 1.478L.224 5.022" transform="translate(.814 .453) translate(8.265 20.49)"/>
            <path stroke="#1E88E5" strokeLinecap="round" strokeLinejoin="round" strokeWidth="1.5" d="M1.985.221l15.016 9.052c.836.506 1.255 1.488 1.04 2.44-.333 1.481-2 2.222-3.323 1.478L.224 5.022" transform="translate(.814 .453) translate(8.265 20.49)"/>
        </g>
        <g>
            <path fill="#FFF" d="M19.006 26.568V8.382c0-4.577-2.624-8.287-5.86-8.287H6.199c-3.236 0-5.86 3.71-5.86 8.287v18.186" transform="translate(.814 .453) translate(28.707 16.826)"/>
            <path stroke="#1E88E5" strokeLinecap="round" strokeLinejoin="round" strokeWidth="1.5" d="M19.006 26.568V8.382c0-4.577-2.624-8.287-5.86-8.287H6.199c-3.236 0-5.86 3.71-5.86 8.287v18.186" transform="translate(.814 .453) translate(28.707 16.826)"/>
        </g>
        <path fill="#FFF" d="M30.58 8.714c0 4.308 3.493 7.8 7.799 7.8 4.308 0 7.798-3.492 7.798-7.8S42.687.916 38.38.916c-4.306 0-7.799 3.49-7.799 7.798" transform="translate(.814 .453)"/>
        <path stroke="#1E88E5" strokeLinecap="round" strokeLinejoin="round" strokeWidth="1.5" d="M30.58 8.714c0 4.308 3.493 7.8 7.799 7.8 4.308 0 7.798-3.492 7.798-7.8S42.687.916 38.38.916c-4.306 0-7.799 3.49-7.799 7.798z" transform="translate(.814 .453)"/>
        <g>
            <path fill="#FFF" d="M16.391.221L1.375 9.273C.538 9.78.118 10.761.333 11.713c.333 1.481 2.003 2.222 3.325 1.478L18.15 5.022" transform="translate(.814 .453) translate(21.988 20.49)"/>
            <path stroke="#1E88E5" strokeLinecap="round" strokeLinejoin="round" strokeWidth="1.5" d="M16.391.221L1.375 9.273C.538 9.78.118 10.761.333 11.713c.333 1.481 2.003 2.222 3.325 1.478L18.15 5.022" transform="translate(.814 .453) translate(21.988 20.49)"/>
        </g>
    </g>
</svg>
