<svg xmlns="http://www.w3.org/2000/svg" width="111" height="240" viewBox="0 0 111 240">
    <g fill="none" fill-rule="evenodd">
        <g>
            <g>
                <g>
                    <path fill="#FFF" d="M87.076 196.652H11.564c-5.71 0-10.341-4.626-10.341-10.334V12.72c0-5.708 4.63-10.335 10.341-10.335h75.512c5.712 0 10.342 4.627 10.342 10.335v173.598c0 5.708-4.63 10.334-10.342 10.334" transform="translate(-212 -1619) translate(212.296 1619.51)"/>
                    <path fill="#8A8A8A" d="M84.467.732H14.173C6.577.732.417 6.888.417 14.481v170.024c0 7.593 6.16 13.748 13.756 13.748h70.294c7.597 0 13.757-6.155 13.757-13.748V14.48c0-7.593-6.16-13.749-13.757-13.749m0 1.602c6.701 0 12.154 5.448 12.154 12.147v170.024c0 6.699-5.453 12.146-12.154 12.146H14.173c-6.7 0-12.154-5.447-12.154-12.146V14.48c0-6.7 5.453-12.147 12.154-12.147h70.294" transform="translate(-212 -1619) translate(212.296 1619.51)"/>
                    <path stroke="#8A8A8A" d="M91.503 15.266V183.77c0 4.359-3.549 7.906-7.911 7.906H15.049c-4.363 0-7.91-3.547-7.91-7.906V15.266c0-4.36 3.547-7.906 7.91-7.906h9.718v.918c0 3.301 2.688 5.987 5.991 5.987H68.07c3.303 0 5.991-2.686 5.991-5.987V7.36h9.53c4.363 0 7.912 3.547 7.912 7.906z" transform="translate(-212 -1619) translate(212.296 1619.51)"/>
                    <path fill="#C7C7C7" d="M61.088 8.975c0 .712-.579 1.29-1.291 1.29-.713 0-1.292-.578-1.292-1.29 0-.712.579-1.29 1.292-1.29.712 0 1.29.578 1.29 1.29M54.857 9.52H44.432c-.453 0-.82-.366-.82-.817 0-.452.367-.818.82-.818h10.425c.452 0 .819.366.819.818 0 .451-.367.818-.819.818" transform="translate(-212 -1619) translate(212.296 1619.51)"/>
                </g>
                <g>
                    <path fill="#FFF" d="M37.442 62.989c0 5.188-6.293 11.68-7.482 12.86-.107.107-.277.107-.385 0-1.187-1.18-7.482-7.672-7.482-12.86 0-4.235 3.436-7.668 7.675-7.668 4.238 0 7.674 3.433 7.674 7.668" transform="translate(-212 -1619) translate(212.296 1619.51) translate(28.738 28.153)"/>
                    <path fill="#1E87E4" d="M29.768 55.92c-3.901 0-7.075 3.17-7.075 7.069 0 4.669 5.462 10.563 7.075 12.203 1.612-1.64 7.074-7.534 7.074-12.203 0-3.898-3.173-7.07-7.074-7.07m0 20.609c-.224 0-.446-.084-.616-.253-1.279-1.27-7.66-7.881-7.66-13.286 0-4.56 3.713-8.27 8.276-8.27s8.276 3.71 8.276 8.27c0 5.405-6.382 12.016-7.66 13.286-.17.17-.392.253-.616.253" transform="translate(-212 -1619) translate(212.296 1619.51) translate(28.738 28.153)"/>
                    <path fill="#1E87E4" d="M30.612 60.858h-1.688v-.898h1.686l.002.898zm3.375.844c0-.465-.377-.843-.842-.843h-1.69v-.844c0-.465-.378-.842-.843-.842h-1.688c-.467 0-.844.377-.844.842v.844h-1.69c-.465 0-.841.378-.841.843v4.718c0 .465.376.843.842.843l6.754-.003c.464 0 .84-.376.842-.84v-4.718z" transform="translate(-212 -1619) translate(212.296 1619.51) translate(28.738 28.153)"/>
                    <path fill="#FFF" d="M49.609 8.697c0 5.188-6.294 11.68-7.482 12.86-.109.107-.278.107-.385 0-1.188-1.18-7.484-7.672-7.484-12.86 0-4.235 3.437-7.668 7.677-7.668 4.238 0 7.674 3.433 7.674 7.668" transform="translate(-212 -1619) translate(212.296 1619.51) translate(28.738 28.153)"/>
                    <path fill="#1E87E4" d="M41.934 1.629c-3.9 0-7.074 3.17-7.074 7.068 0 4.669 5.462 10.565 7.074 12.203 1.613-1.638 7.073-7.534 7.073-12.203 0-3.897-3.173-7.068-7.073-7.068m0 20.607c-.224 0-.445-.084-.615-.252-1.28-1.27-7.66-7.882-7.66-13.287 0-4.56 3.712-8.269 8.275-8.269 4.563 0 8.276 3.709 8.276 8.269 0 5.405-6.381 12.016-7.66 13.287-.17.168-.393.252-.616.252" transform="translate(-212 -1619) translate(212.296 1619.51) translate(28.738 28.153)"/>
                    <path fill="#1E87E4" d="M41.091 6.567h1.687v-.898H41.09v.898zm5.062.844c0-.467-.377-.844-.843-.844h-1.69v-.843c0-.466-.376-.844-.842-.844H41.09c-.466 0-.844.378-.844.844v.843h-1.69c-.466 0-.844.377-.844.842v4.72c0 .465.378.843.845.843l6.752-.004c.465 0 .843-.375.844-.839l-.001-4.718z" transform="translate(-212 -1619) translate(212.296 1619.51) translate(28.738 28.153)"/>
                    <path fill="#FFF" d="M16.37 35.386c0 5.188-6.294 11.68-7.483 12.86-.107.107-.277.107-.385 0-1.187-1.18-7.482-7.672-7.482-12.86 0-4.235 3.436-7.668 7.675-7.668 4.238 0 7.675 3.433 7.675 7.668" transform="translate(-212 -1619) translate(212.296 1619.51) translate(28.738 28.153)"/>
                    <path fill="#1E87E4" d="M8.695 28.318c-3.901 0-7.074 3.17-7.074 7.068 0 4.669 5.461 10.565 7.074 12.203 1.612-1.638 7.074-7.534 7.074-12.203 0-3.898-3.173-7.068-7.074-7.068m0 20.607c-.223 0-.446-.084-.616-.253C6.8 47.402.42 40.79.42 35.386c0-4.56 3.712-8.27 8.276-8.27 4.563 0 8.275 3.71 8.275 8.27 0 5.405-6.381 12.016-7.66 13.286-.17.17-.391.253-.615.253" transform="translate(-212 -1619) translate(212.296 1619.51) translate(28.738 28.153)"/>
                    <path fill="#1E87E4" d="M9.539 33.256l-1.688-.001v-.898h1.686l.002.899zm3.375.843c0-.465-.377-.843-.842-.843h-1.69l.001-.844c0-.465-.38-.842-.844-.842H7.85c-.465 0-.845.377-.845.842v.844H5.318c-.466 0-.842.378-.842.843v4.718c0 .465.376.843.842.843l6.754-.003c.465 0 .84-.376.843-.84l-.001-4.718z" transform="translate(-212 -1619) translate(212.296 1619.51) translate(28.738 28.153)"/>
                    <path fill="#FFF" d="M17.214 105.836c0 5.188-6.294 11.68-7.483 12.86-.107.107-.277.107-.385 0-1.187-1.18-7.482-7.672-7.482-12.86 0-4.236 3.435-7.669 7.675-7.669 4.238 0 7.675 3.433 7.675 7.669" transform="translate(-212 -1619) translate(212.296 1619.51) translate(28.738 28.153)"/>
                    <path fill="#1E87E4" d="M9.539 98.767c-3.901 0-7.074 3.17-7.074 7.068 0 4.67 5.461 10.565 7.075 12.204 1.611-1.639 7.073-7.534 7.073-12.204 0-3.898-3.174-7.068-7.074-7.068m0 20.608c-.223 0-.446-.084-.616-.252-1.279-1.271-7.66-7.883-7.66-13.288 0-4.56 3.712-8.27 8.276-8.27 4.563 0 8.275 3.71 8.275 8.27 0 5.405-6.38 12.017-7.66 13.288-.17.168-.391.252-.614.252" transform="translate(-212 -1619) translate(212.296 1619.51) translate(28.738 28.153)"/>
                    <path fill="#1E87E4" d="M10.382 103.706H8.695v-.9l1.686.002.001.898zm3.376.842c0-.465-.377-.842-.842-.842h-1.69v-.844c0-.465-.378-.843-.844-.843H8.695c-.466 0-.845.378-.845.843v.844H6.161c-.465 0-.842.377-.842.842v4.719c0 .465.377.844.842.844l6.755-.004c.465 0 .84-.376.843-.84l-.001-4.719z" transform="translate(-212 -1619) translate(212.296 1619.51) translate(28.738 28.153)"/>
                    <path fill="#FFF" d="M45.096 96.132c0 5.188-6.294 11.68-7.482 12.86-.107.107-.277.107-.385 0-1.187-1.18-7.482-7.672-7.482-12.86 0-4.235 3.436-7.668 7.675-7.668 4.238 0 7.674 3.433 7.674 7.668" transform="translate(-212 -1619) translate(212.296 1619.51) translate(28.738 28.153)"/>
                    <path fill="#1E87E4" d="M37.422 89.064c-3.901 0-7.075 3.17-7.075 7.068 0 4.67 5.462 10.564 7.075 12.203 1.612-1.64 7.074-7.534 7.074-12.203 0-3.898-3.173-7.068-7.074-7.068m0 20.607c-.224 0-.446-.084-.616-.253-1.279-1.27-7.66-7.881-7.66-13.286 0-4.56 3.712-8.27 8.276-8.27 4.563 0 8.275 3.71 8.275 8.27 0 5.405-6.381 12.016-7.66 13.286-.17.17-.391.253-.615.253" transform="translate(-212 -1619) translate(212.296 1619.51) translate(28.738 28.153)"/>
                    <path fill="#1E87E4" d="M38.266 94.002l-1.688-.001v-.898h1.686l.002.9zm3.374.843c0-.465-.376-.843-.841-.843h-1.69v-.844c0-.465-.378-.842-.843-.842h-1.688c-.467 0-.845.377-.845.842v.844h-1.688c-.466 0-.842.378-.842.843v4.718c0 .465.376.843.842.843l6.754-.003c.464 0 .84-.376.842-.84l-.001-4.718z" transform="translate(-212 -1619) translate(212.296 1619.51) translate(28.738 28.153)"/>
                </g>
                <g>
                    <g>
                        <path fill="#FFF" d="M19.588 38.202V17.236C19.588 4.866 7.212-.262 4.044.19.874.643.573 5.017.573 5.017v47.665c0 7.468 2.822 14.404 6.35 20.156" transform="translate(-212 -1619) translate(212.296 1619.51) translate(10.192 119.497) translate(0 44.62)"/>
                        <path stroke="#8A8A8A" strokeLinecap="round" strokeWidth="1.5" d="M19.588 38.202V17.236C19.588 4.866 7.212-.262 4.044.19.874.643.573 5.017.573 5.017v47.665c0 7.468 2.822 14.404 6.35 20.156" transform="translate(-212 -1619) translate(212.296 1619.51) translate(10.192 119.497) translate(0 44.62)"/>
                    </g>
                    <g>
                        <path fill="#FFF" d="M.128 82.824V10.38c0-5.416 4.39-9.805 9.809-9.805 5.418 0 9.81 4.389 9.81 9.805v56.894-.121c0-5.417 4.392-9.806 9.81-9.806 5.417 0 9.808 4.39 9.808 9.806v-.258 2.202c0-5.414 4.392-9.804 9.81-9.804 5.419 0 9.81 4.39 9.81 9.804v3.242c.841-4.976 4.286-8.555 10.037-7.835 5.75.719 8.793 7.428 8.793 12.968v24.076s-.114 7.883-1.838 16.184" transform="translate(-212 -1619) translate(212.296 1619.51) translate(10.192 119.497) translate(19.46 -.001)"/>
                        <path stroke="#8A8A8A" strokeLinecap="round" strokeLinejoin="round" strokeWidth="1.5" d="M.128 82.824V10.38c0-5.416 4.39-9.805 9.809-9.805 5.418 0 9.81 4.389 9.81 9.805v56.894-.121c0-5.417 4.392-9.806 9.81-9.806 5.417 0 9.808 4.39 9.808 9.806v-.258 2.202c0-5.414 4.392-9.804 9.81-9.804 5.419 0 9.81 4.39 9.81 9.804v3.242c.841-4.976 4.286-8.555 10.037-7.835 5.75.719 8.793 7.428 8.793 12.968v24.076s-.114 7.883-1.838 16.184" transform="translate(-212 -1619) translate(212.296 1619.51) translate(10.192 119.497) translate(19.46 -.001)"/>
                    </g>
                </g>
            </g>
        </g>
    </g>
</svg>
