<svg xmlns="http://www.w3.org/2000/svg" width="89" height="99" viewBox="0 0 89 99">
    <g fill="none" fill-rule="evenodd">
        <path fill="#FFF" d="M38.003 20.268l-.428 2.728-.697 1.398s1.84 1.255 3.712.727c0 0 .124-1.881.61-3.111l-3.197-1.742z" transform="translate(1.034 1.262)"/>
        <path fill="#FFF" d="M45.9 18.115s.39 1.61-.718 2.66c-1.107 1.05-3.077 1.772-4.895.965-1.818-.808-3.4-3.417-3.725-4.188l-2.248-.775s-2.226-1.744-2.303-3.385c-.077-1.642-.793-2.413-1.167-2.546-.375-.132-2.356-.194-2.853.677 0 0 1.38-3.103 2.562-3.413 1.18-.31 2.071-.437 2.071-.437s-.256-3.44 1.546-5.638S38.306.547 38.306.547s2.956 1.176 1.708 4.056c0 0 4.279-1.025 5.655.888 1.377 1.912 1.84 3.62 1.094 5.114-.747 1.494-.925 1.532-.925 1.532s.662 2.99 1.876 5.071l-1.813.907zM50.225 87.163l-4.728.762c-.36.058-.698-.187-.756-.546l-.138-.858c-.058-.36.187-.699.547-.756l4.727-.763c.36-.057.698.188.756.547l.138.858c.058.36-.186.698-.546.756" transform="translate(1.034 1.262)"/>
        <path stroke="#1E86E3" strokeLinecap="round" strokeLinejoin="round" d="M50.225 87.163l-4.728.762c-.36.058-.698-.187-.756-.546l-.138-.858c-.058-.36.187-.699.547-.756l4.727-.763c.36-.057.698.188.756.547l.138.858c.058.36-.186.698-.546.756z" transform="translate(1.034 1.262)"/>
        <g>
            <path fill="#FFF" d="M0.001 0.365L0.407 2.803 1.573 2.803 1.68 1.194" transform="translate(1.034 1.262) translate(28.614 74.837)"/>
            <path stroke="#1E86E3" strokeLinecap="round" strokeLinejoin="round" strokeWidth=".75" d="M0.001 0.365L0.407 2.803 1.573 2.803 1.68 1.194" transform="translate(1.034 1.262) translate(28.614 74.837)"/>
        </g>
        <path fill="#FFF" d="M34.954 73.55c.39.172 1.405.852 1.99 1.24.667.445 1.893 1.243 1.884 1.956-.01.763-.663 1.01-1.406 1.18-.743.169-1.26.063-2.16-.092-.751-.13-1.812-.528-2.497-.865-1.1-.542-2.286-.894-3.414-1.379-.553-.238-1.137-.554-1.367-1.11-.24-.584-.019-1.246.202-1.837l.299-.798 6.469 1.705z" transform="translate(1.034 1.262)"/>
        <path stroke="#1E86E3" strokeLinecap="round" strokeLinejoin="round" d="M34.954 73.55c.39.172 1.405.852 1.99 1.24.667.445 1.893 1.243 1.884 1.956-.01.763-.663 1.01-1.406 1.18-.743.169-1.26.063-2.16-.092-.751-.13-1.812-.528-2.497-.865-1.1-.542-2.286-.894-3.414-1.379-.553-.238-1.137-.554-1.367-1.11-.24-.584-.019-1.246.202-1.837l.299-.798 6.469 1.705z" transform="translate(1.034 1.262)"/>
        <path fill="#FFF" d="M44.515 53.433c.52.939.7 2.391.392 3.419-.332 1.102-1.113 2.008-1.919 2.83-4.064 4.155-9.197 7.099-13.54 10.963 0 0-.896.62-1.037.98-.14.363.016 1.048 1.23 1.74 1.213.691 3.185 2.228 5.313.184l-2.8-1.658c2.59-2.276 5.213-4.526 8.063-6.466.875-.596 1.77-1.162 2.63-1.776 1.85-1.32 3.582-2.925 4.524-4.991.943-2.068.785-5.064-.604-6.862l-2.252 1.637z" transform="translate(1.034 1.262)"/>
        <path stroke="#1E86E3" strokeLinecap="round" strokeLinejoin="round" d="M44.515 53.433c.52.939.7 2.391.392 3.419-.332 1.102-1.113 2.008-1.919 2.83-4.064 4.155-9.197 7.099-13.54 10.963 0 0-.896.62-1.037.98-.14.363.016 1.048 1.23 1.74 1.213.691 3.185 2.228 5.313.184l-2.8-1.658c2.59-2.276 5.213-4.526 8.063-6.466.875-.596 1.77-1.162 2.63-1.776 1.85-1.32 3.582-2.925 4.524-4.991.943-2.068.785-5.064-.604-6.862l-2.252 1.637z" transform="translate(1.034 1.262)"/>
        <path fill="#FFF" d="M18.809 93.775c-7.21 0-13.055-5.845-13.055-13.055S11.6 67.665 18.81 67.665 31.864 73.51 31.864 80.72s-5.845 13.055-13.055 13.055m0-28.02c-8.265 0-14.965 6.7-14.965 14.965s6.7 14.965 14.965 14.965 14.965-6.7 14.965-14.965-6.7-14.965-14.965-14.965" transform="translate(1.034 1.262)"/>
        <path stroke="#1E86E3" strokeLinecap="round" strokeLinejoin="round" d="M18.809 93.775c-7.21 0-13.055-5.845-13.055-13.055S11.6 67.665 18.81 67.665 31.864 73.51 31.864 80.72s-5.845 13.055-13.055 13.055zm0-28.02c-8.265 0-14.965 6.7-14.965 14.965s6.7 14.965 14.965 14.965 14.965-6.7 14.965-14.965-6.7-14.965-14.965-14.965z" transform="translate(1.034 1.262)"/>
        <path fill="#FFF" d="M18.809 62.37c-10.162 0-18.4 8.238-18.4 18.4h1.94c0-9.09 7.37-16.46 16.46-16.46s16.46 7.37 16.46 16.46h1.94c0-10.162-8.238-18.4-18.4-18.4" transform="translate(1.034 1.262)"/>
        <path stroke="#1E86E3" strokeLinecap="round" strokeLinejoin="round" d="M18.809 62.37c-10.162 0-18.4 8.238-18.4 18.4h1.94c0-9.09 7.37-16.46 16.46-16.46s16.46 7.37 16.46 16.46h1.94c0-10.162-8.238-18.4-18.4-18.4z" transform="translate(1.034 1.262)"/>
        <path fill="#FFF" d="M70.792 64.366v-1.94c-10.162 0-18.4 8.238-18.4 18.4h1.94c0-9.09 7.369-16.46 16.46-16.46" transform="translate(1.034 1.262)"/>
        <path stroke="#1E86E3" strokeLinecap="round" strokeLinejoin="round" d="M70.792 64.366v-1.94c-10.162 0-18.4 8.238-18.4 18.4h1.94c0-9.09 7.369-16.46 16.46-16.46zM45.885 12.295c.15 1.394 1.119 3.737 2.042 4.791-.646.38-1.337.685-2.055.905.342 1.347-.386 2.838-1.573 3.56-1.188.724-2.73.727-4.012.189-1.282-.537-2.315-1.565-3.052-2.745-.543-.87-.818-2.08-1.429-3.015M37.6 19.626c.562.803.456 1.897.163 2.833-.212.679-.51 1.33-.885 1.935-.027-.025-.003-.081.033-.079" transform="translate(1.034 1.262)"/>
        <path fill="#FFF" d="M41.483 80.63L39.13 70.487l21.833-12.605.27 1.601-19.749 21.149zm-21.112-.71l14.264-20.75 5.146 22.174-19.41-1.424zm41.452-27.883l-1.794.302.611 3.627L38.7 68.633l-2.74-11.801-1.753-.251L18.27 79.766l-.058 1.756 22 1.68 1.793-.464 19.607-20.996 1.14 6.354 1.794-.302-2.723-15.757z" transform="translate(1.034 1.262)"/>
        <path stroke="#1E86E3" strokeLinecap="round" strokeLinejoin="round" d="M41.483 80.63L39.13 70.487l21.833-12.605.27 1.601-19.749 21.149zm-21.112-.71l14.264-20.75 5.146 22.174-19.41-1.424zm41.452-27.883l-1.794.302.611 3.627L38.7 68.633l-2.74-11.801-1.753-.251L18.27 79.766l-.058 1.756 22 1.68 1.793-.464 19.607-20.996 1.14 6.354 1.794-.302-2.723-15.757zM41.2 22.343c-.487.681-.763 1.511-.783 2.347" transform="translate(1.034 1.262)"/>
        <path fill="#FFF" d="M44.36 25.546c.58 1.344 2.056 4.427 2.847 5.658.426.662.91 1.287 1.407 1.9 1.94 2.386 5.979 6.608 8.32 8.602l-1.83 1.687c-3.726-2.952-8.567-7.116-11.06-11.163" transform="translate(1.034 1.262)"/>
        <path stroke="#1E86E3" strokeLinecap="round" strokeLinejoin="round" d="M44.36 25.546c.58 1.344 2.056 4.427 2.847 5.658.426.662.91 1.287 1.407 1.9 1.94 2.386 5.979 6.608 8.32 8.602l-1.83 1.687c-3.726-2.952-8.567-7.116-11.06-11.163M35.27 17.121c-1.355-.242-2.386-1.407-2.922-2.676-.387-.916-.573-1.94-.378-2.914.194-.976.804-1.891 1.702-2.32.422-.202.908-.302 1.248-.624.245-.233.383-.55.557-.84.663-1.099 1.853-1.753 3.014-2.3 1.628-.766 3.44-1.431 5.192-1.024 1.8.417 3.251 2.051 3.455 3.888.203 1.838-.854 3.748-2.52 4.55M43.882 11.168c-.68 1.316-1.797 2.402-3.13 3.046M35.898 15.203c2.121-.418 3.99-1.947 4.817-3.943" transform="translate(1.034 1.262)"/>
        <path stroke="#1E86E3" strokeLinecap="round" strokeLinejoin="round" d="M39.884 4.796c.81-1.085.543-2.775-.481-3.66C38.378.25 36.774.187 35.605.87c-1.323.774-2.02 2.278-2.516 3.728-.274.801-.513 1.632-.493 2.478.02.847.28 1.676.944 2.201M32.625 7.673c-1.1-.187-2.222.363-3.002 1.161-.78.798-1.28 1.822-1.767 2.826.451-.488 1.063-.826 1.716-.946.4-.074.824-.065 1.197.095.373.16 1.05.611 1.123 1.011M42.1 15.08c-2.078.025-4.153.243-6.19.65-.207.041-.417.085-.593.197-.178.112-.318.306-.306.515" transform="translate(1.034 1.262)"/>
        <path stroke="#1E86E3" strokeLinecap="round" strokeLinejoin="round" strokeWidth=".75" d="M43.369 19.12c.707.25 1.486.296 2.218.134" transform="translate(1.034 1.262)"/>
        <path stroke="#1E86E3" strokeLinecap="round" strokeLinejoin="round" d="M45.192 13.987c.235-.123.46-.265.674-.423" transform="translate(1.034 1.262)"/>
        <path fill="#FFF" d="M20.947 80.72c0 1.18-.957 2.137-2.138 2.137-1.18 0-2.137-.956-2.137-2.137 0-1.18.956-2.138 2.137-2.138s2.138.958 2.138 2.138" transform="translate(1.034 1.262)"/>
        <path stroke="#1E86E3" strokeLinecap="round" strokeLinejoin="round" d="M20.947 80.72c0 1.18-.957 2.137-2.138 2.137-1.18 0-2.137-.956-2.137-2.137 0-1.18.956-2.138 2.137-2.138s2.138.958 2.138 2.138z" transform="translate(1.034 1.262)"/>
        <path fill="#FFF" d="M44.878 80.72c0 2.347-1.904 4.25-4.25 4.25-2.348 0-4.25-1.903-4.25-4.25s1.902-4.25 4.25-4.25c2.346 0 4.25 1.903 4.25 4.25" transform="translate(1.034 1.262)"/>
        <path stroke="#1E86E3" strokeLinecap="round" strokeLinejoin="round" d="M44.878 80.72c0 2.347-1.904 4.25-4.25 4.25-2.348 0-4.25-1.903-4.25-4.25s1.902-4.25 4.25-4.25c2.346 0 4.25 1.903 4.25 4.25z" transform="translate(1.034 1.262)"/>
        <path fill="#FFF" d="M72.906 80.72c0 1.18-.958 2.137-2.138 2.137s-2.138-.956-2.138-2.137c0-1.18.957-2.138 2.138-2.138 1.18 0 2.138.958 2.138 2.138" transform="translate(1.034 1.262)"/>
        <path stroke="#1E86E3" strokeLinecap="round" strokeLinejoin="round" d="M72.906 80.72c0 1.18-.958 2.137-2.138 2.137s-2.138-.956-2.138-2.137c0-1.18.957-2.138 2.138-2.138 1.18 0 2.138.958 2.138 2.138z" transform="translate(1.034 1.262)"/>
        <path fill="#FFF" d="M66.524 45.572c-.718-.59-1.637-.945-2.64-.945H55.11c-.495 0-.897.403-.897.897v.038c0 .496.402.898.897.898h8.685c.015 0 .029.004.045.004.015 0 .029-.004.044-.004 1.299 0 2.35 1.052 2.35 2.35 0 1.297-1.051 2.349-2.35 2.349-.015 0-.029-.005-.044-.005-.016 0-.03.005-.045.005H59.805c-.496 0-.898.401-.898.898 0 .495.402.896.898.896h4.08c1.002 0 1.92-.354 2.64-.943.93-.764 1.523-1.922 1.523-3.219s-.593-2.456-1.524-3.22" transform="translate(1.034 1.262)"/>
        <path stroke="#1E86E3" strokeLinecap="round" strokeLinejoin="round" d="M66.524 45.572c-.718-.59-1.637-.945-2.64-.945H55.11c-.495 0-.897.403-.897.897v.038c0 .496.402.898.897.898h8.685c.015 0 .029.004.045.004.015 0 .029-.004.044-.004 1.299 0 2.35 1.052 2.35 2.35 0 1.297-1.051 2.349-2.35 2.349-.015 0-.029-.005-.044-.005-.016 0-.03.005-.045.005H59.805c-.496 0-.898.401-.898.898 0 .495.402.896.898.896h4.08c1.002 0 1.92-.354 2.64-.943.93-.764 1.523-1.922 1.523-3.219s-.593-2.456-1.524-3.22z" transform="translate(1.034 1.262)"/>
        <path fill="#FFF" d="M70.767 93.775c-7.209 0-13.054-5.845-13.054-13.055s5.845-13.055 13.054-13.055c7.21 0 13.055 5.845 13.055 13.055s-5.845 13.055-13.055 13.055m0-28.02c-8.264 0-14.964 6.7-14.964 14.965s6.7 14.965 14.964 14.965c8.265 0 14.966-6.7 14.966-14.965s-6.7-14.965-14.966-14.965" transform="translate(1.034 1.262)"/>
        <path stroke="#1E86E3" strokeLinecap="round" strokeLinejoin="round" d="M70.767 93.775c-7.209 0-13.054-5.845-13.054-13.055s5.845-13.055 13.054-13.055c7.21 0 13.055 5.845 13.055 13.055s-5.845 13.055-13.055 13.055zm0-28.02c-8.264 0-14.964 6.7-14.964 14.965s6.7 14.965 14.964 14.965c8.265 0 14.966-6.7 14.966-14.965s-6.7-14.965-14.966-14.965z" transform="translate(1.034 1.262)"/>
        <g>
            <path fill="#FFF" d="M0.436 0.064L0.843 2.502 2.008 2.502 2.116 0.893" transform="translate(1.034 1.262) translate(42.513 83.013)"/>
            <path stroke="#1E86E3" strokeLinecap="round" strokeLinejoin="round" strokeWidth=".75" d="M0.436 0.064L0.843 2.502 2.008 2.502 2.116 0.893" transform="translate(1.034 1.262) translate(42.513 83.013)"/>
        </g>
        <path fill="#FFF" d="M49.287 81.424c.39.173 1.405.853 1.99 1.241.667.444 1.893 1.242 1.884 1.956-.009.763-.662 1.009-1.406 1.179-.743.17-1.26.064-2.16-.092-.751-.129-1.812-.528-2.497-.865-1.1-.542-2.285-.893-3.414-1.378-.553-.238-1.137-.554-1.367-1.111-.24-.584-.018-1.245.203-1.836l.298-.798 6.47 1.704z" transform="translate(1.034 1.262)"/>
        <path stroke="#1E86E3" strokeLinecap="round" strokeLinejoin="round" d="M49.287 81.424c.39.173 1.405.853 1.99 1.241.667.444 1.893 1.242 1.884 1.956-.009.763-.662 1.009-1.406 1.179-.743.17-1.26.064-2.16-.092-.751-.129-1.812-.528-2.497-.865-1.1-.542-2.285-.893-3.414-1.378-.553-.238-1.137-.554-1.367-1.111-.24-.584-.018-1.245.203-1.836l.298-.798 6.47 1.704z" transform="translate(1.034 1.262)"/>
        <path fill="#FFF" d="M54.117 43.403c-.404.27-.57.873-.748 1.325-.07.184-.12.377-.12.573.002.339.156.667.386.915.495.54 2.842.582 3.498.259v.218l-.804.238c-.619.312-.94 1.124-.677 1.766.262.64 1.185 1.077 1.78.72.18-.105.304-.22.465-.356.453-.385.864-.818 1.222-1.291.137-.182.268-.371.336-.589.149-.472-.023-.98-.2-1.443-.196-.51-.405-1.02-.719-1.467-.094-.134-.2-.265-.345-.341-.135-.074-.293-.093-.447-.11l-3.627-.417" transform="translate(1.034 1.262)"/>
        <path stroke="#1E86E3" strokeLinecap="round" strokeLinejoin="round" d="M54.117 43.403c-.404.27-.57.873-.748 1.325-.07.184-.12.377-.12.573.002.339.156.667.386.915.495.54 2.842.582 3.498.259v.218l-.804.238c-.619.312-.94 1.124-.677 1.766.262.64 1.185 1.077 1.78.72.18-.105.304-.22.465-.356.453-.385.864-.818 1.222-1.291.137-.182.268-.371.336-.589.149-.472-.023-.98-.2-1.443-.196-.51-.405-1.02-.719-1.467-.094-.134-.2-.265-.345-.341-.135-.074-.293-.093-.447-.11l-3.627-.417z" transform="translate(1.034 1.262)"/>
        <path fill="#FFF" d="M44.722 78.34c1.017-2.716 1.462-5.143 2.478-7.86.598-1.597 1.203-3.23 1.254-4.934.072-2.37-.95-4.669-2.39-6.55-1.443-1.884-2.942-3.12-4.771-4.628l-.557-.601 2.158-2.159 1.981 1.854c2.551 2.722 5.605 6.202 6.263 9.874.542 3.031-.38 6.132-1.572 8.971-1.017 2.422-1.675 4.488-2.43 6.994 0 0 .2 1.192 2.15 2.123 0 0 .998 1.6-1.625.942-2.622-.66-4.843-2.646-4.843-2.646l1.904-1.38z" transform="translate(1.034 1.262)"/>
        <path stroke="#1E86E3" strokeLinecap="round" strokeLinejoin="round" d="M44.722 78.34c1.017-2.716 1.462-5.143 2.478-7.86.598-1.597 1.203-3.23 1.254-4.934.072-2.37-.95-4.669-2.39-6.55-1.443-1.884-2.942-3.12-4.771-4.628l-.557-.601 2.158-2.159 1.981 1.854c2.551 2.722 5.605 6.202 6.263 9.874.542 3.031-.38 6.132-1.572 8.971-1.017 2.422-1.675 4.488-2.43 6.994 0 0 .2 1.192 2.15 2.123 0 0 .998 1.6-1.625.942-2.622-.66-4.843-2.646-4.843-2.646l1.904-1.38zM56.6 42.12c.522.072 1.05.147 1.541.34.492.192.95.518 1.2.982.172.318.236.68.298 1.035" transform="translate(1.034 1.262)"/>
        <path fill="#FFF" d="M70.009 81.058c-3.732-2.741-6.457-11.806-7.123-18.473l1.791-.319c.616 5.82 3.096 14.718 6.466 17.335.323.251.42.699.258 1.075-.235.542-.917.732-1.392.382" transform="translate(1.034 1.262)"/>
        <path stroke="#1E86E3" strokeLinecap="round" strokeLinejoin="round" d="M70.009 81.058c-3.732-2.741-6.457-11.806-7.123-18.473l1.791-.319c.616 5.82 3.096 14.718 6.466 17.335.323.251.42.699.258 1.075-.235.542-.917.732-1.392.382z" transform="translate(1.034 1.262)"/>
        <path fill="#FFF" d="M35.37 46.883c1.437.84 2.881 1.681 4.423 2.307 1.542.627 3.06 1.268 4.723 1.197-.843 1.92-2.49 3.375-4.262 4.493-2.836 1.79-6.213 2.879-9.547 2.515-3.334-.363-6.574-2.336-7.973-5.385 2.84-2.565 5.145-5.99 6.884-9.397.372-.729.728-1.471.946-2.26.264-.962.317-1.966.367-2.961l.3-5.876c.09-1.749.2-3.566 1.051-5.096.852-1.529 2.686-2.664 4.353-2.132.887 1.059 2.694 1.402 3.955.833.61-.275.047-.91-.017-.908.712.014 1.424.023 2.137.042.683.02 1.518.435 1.62 1.092.544 3.486.016 7.169-1.809 10.188-.383 1.836-.681 8.576.31 10.17.99 1.592 2.973 2.632 4.79 2.166-1.44 1.142-.107 3.873-1.452 5.125-.486.452-1.226.563-1.867.391-.641-.17-.847-.25-1.3-.737l1.118-1.226" transform="translate(1.034 1.262)"/>
        <path stroke="#1E86E3" strokeLinecap="round" strokeLinejoin="round" d="M35.37 46.883c1.437.84 2.881 1.681 4.423 2.307 1.542.627 3.06 1.268 4.723 1.197-.843 1.92-2.49 3.375-4.262 4.493-2.836 1.79-6.213 2.879-9.547 2.515-3.334-.363-6.574-2.336-7.973-5.385 2.84-2.565 5.145-5.99 6.884-9.397.372-.729.728-1.471.946-2.26.264-.962.317-1.966.367-2.961l.3-5.876c.09-1.749.2-3.566 1.051-5.096.852-1.529 2.686-2.664 4.353-2.132.887 1.059 2.694 1.402 3.955.833.61-.275.047-.91-.017-.908.712.014 1.424.023 2.137.042.683.02 1.518.435 1.62 1.092.544 3.486.016 7.169-1.809 10.188-.383 1.836-.681 8.576.31 10.17.99 1.592 2.973 2.632 4.79 2.166-1.44 1.142-.107 3.873-1.452 5.125-.486.452-1.226.563-1.867.391-.641-.17-.847-.25-1.3-.737" transform="translate(1.034 1.262)"/>
        <path fill="#FFF" d="M37.526 29.629c.291.663.585 1.33.962 1.95.539.886 1.24 1.663 1.98 2.39 4.027 3.953 9.25 6.504 14.636 8.187-.672.776-1.614 1.776-2.16 2.646l-2.952-1.07c-1.561-.566-3.124-1.134-4.634-1.823-3.744-1.71-7.106-4.152-10.301-6.746-.378-.307-.754-.617-1.13-.926" transform="translate(1.034 1.262)"/>
        <path stroke="#1E86E3" strokeLinecap="round" strokeLinejoin="round" d="M37.526 29.629c.291.663.585 1.33.962 1.95.539.886 1.24 1.663 1.98 2.39 4.027 3.953 9.25 6.504 14.636 8.187-.672.776-1.614 1.776-2.16 2.646l-2.952-1.07c-1.561-.566-3.124-1.134-4.634-1.823-3.744-1.71-7.106-4.152-10.301-6.746-.378-.307-.754-.617-1.13-.926" transform="translate(1.034 1.262)"/>
        <path stroke="#1E86E3" strokeLinecap="round" strokeLinejoin="round" d="M40.566 23.896c.882.506 1.208 1.683.978 2.673-.23.99-.902 1.818-1.635 2.523-5.086 4.891-13.177 4.637-18.2 9.594M14.066 34.464c.002-2.021 1.817-3.482 3.564-4.5 4.296-2.501 10.08-3.486 15.015-4.097" transform="translate(1.034 1.262)"/>
        <g>
            <path fill="#FFF" d="M2.62.505c-.11 1.139-.58 2.24-1.326 3.107-.278.323-.604.632-.721 1.042-.247.86.507 1.656 1.188 2.236 1.041.887 2.125 1.796 3.438 2.18 1.312.382 2.926.092 3.689-1.044.67-.997.563-2.414 1.376-3.3-.839.113-1.712.223-2.516-.04-.793-.26-1.427-.85-2.033-1.424C4.63 2.232 3.707 1.535 2.62.505" transform="translate(1.034 1.262) translate(11.446 33.96)"/>
            <path stroke="#1E86E3" strokeLinecap="round" strokeLinejoin="round" d="M2.62.505c-.11 1.139-.58 2.24-1.326 3.107-.278.323-.604.632-.721 1.042-.247.86.507 1.656 1.188 2.236 1.041.887 2.125 1.796 3.438 2.18 1.312.382 2.926.092 3.689-1.044.67-.997.563-2.414 1.376-3.3-.839.113-1.712.223-2.516-.04-.793-.26-1.427-.85-2.033-1.424C4.63 2.232 3.707 1.535 2.62.505" transform="translate(1.034 1.262) translate(11.446 33.96)"/>
        </g>
        <path stroke="#1E86E3" strokeLinecap="round" strokeLinejoin="round" d="M15.868 38.813c.295 0 .553.245.878.593.245.262.583.74.528.965-.036.15-.174.255-.318.305-.472.167-.877-.208-1.195-.594-.211-.258-.453-.505-.49-.837-.04-.343.341-.432.597-.432z" transform="translate(1.034 1.262)"/>
        <path fill="#FFF" d="M57.851 46.347c0 .61-.494 1.104-1.103 1.104s-1.103-.494-1.103-1.104c0-.61.494-1.103 1.103-1.103.61 0 1.103.494 1.103 1.103" transform="translate(1.034 1.262)"/>
        <path stroke="#1E86E3" strokeLinecap="round" strokeLinejoin="round" d="M57.851 46.347c0 .61-.494 1.104-1.103 1.104s-1.103-.494-1.103-1.104c0-.61.494-1.103 1.103-1.103.61 0 1.103.494 1.103 1.103z" transform="translate(1.034 1.262)"/>
        <path fill="#1E86E3" d="M45.134 13.38s.132 3.205-1.367 3.475c-1.498.27-2.033-2.992-2.033-2.992s1.357-.524 3.4-.483" transform="translate(1.034 1.262)"/>
        <path stroke="#1E86E3" strokeLinecap="round" strokeLinejoin="round" d="M45.134 13.38s.132 3.205-1.367 3.475c-1.498.27-2.033-2.992-2.033-2.992s1.357-.524 3.4-.483zM46.967 13.127s.132 1.782-.046 1.825c-.178.045-.756-1.644-.756-1.644s.425-.346.802-.181z" transform="translate(1.034 1.262)"/>
        <path fill="#1E86E3" d="M35.898 17.867c0 .363-.295.66-.658.66-.364 0-.66-.297-.66-.66 0-.363.296-.66.66-.66.363 0 .658.297.658.66" transform="translate(1.034 1.262)"/>
        <path stroke="#1E86E3" strokeLinecap="round" strokeLinejoin="round" strokeWidth=".75" d="M35.898 17.867c0 .363-.295.66-.658.66-.364 0-.66-.297-.66-.66 0-.363.296-.66.66-.66.363 0 .658.297.658.66z" transform="translate(1.034 1.262)"/>
    </g>
</svg>
